<?xml version="1.0" standalone="no"?>
<!DOCTYPE svg PUBLIC "-//W3C//DTD SVG 20010904//EN"
 "http://www.w3.org/TR/2001/REC-SVG-20010904/DTD/svg10.dtd">
<svg version="1.0" xmlns="http://www.w3.org/2000/svg"
 width="32.000000pt" height="32.000000pt" viewBox="0 0 32.000000 32.000000"
 preserveAspectRatio="xMidYMid meet">

<g transform="translate(0.000000,32.000000) scale(0.100000,-0.100000)"
fill="#000000" stroke="none">
<path d="M19 304 c-20 -24 1 -49 42 -49 25 0 35 5 37 18 8 41 -51 64 -79 31z"/>
<path d="M120 280 c0 -28 2 -30 40 -30 38 0 40 2 40 30 0 28 -2 30 -40 30 -38
0 -40 -2 -40 -30z"/>
<path d="M220 280 c0 -28 2 -30 40 -30 38 0 40 2 40 30 0 28 -2 30 -40 30 -38
0 -40 -2 -40 -30z"/>
<path d="M20 200 c0 -28 2 -30 40 -30 38 0 40 2 40 30 0 28 -2 30 -40 30 -38
0 -40 -2 -40 -30z"/>
<path d="M120 200 c0 -28 2 -30 40 -30 38 0 40 2 40 30 0 28 -2 30 -40 30 -38
0 -40 -2 -40 -30z"/>
<path d="M20 115 c0 -34 1 -35 40 -35 39 0 40 1 40 35 0 34 -1 35 -40 35 -39
0 -40 -1 -40 -35z"/>
<path d="M120 115 c0 -34 1 -35 40 -35 39 0 40 1 40 35 0 34 -1 35 -40 35 -39
0 -40 -1 -40 -35z"/>
<path d="M220 115 c0 -34 1 -35 40 -35 39 0 40 1 40 35 0 34 -1 35 -40 35 -39
0 -40 -1 -40 -35z"/>
<path d="M20 35 c0 -34 1 -35 40 -35 39 0 40 1 40 35 0 34 -1 35 -40 35 -39 0
-40 -1 -40 -35z"/>
<path d="M120 35 c0 -34 1 -35 40 -35 39 0 40 1 40 35 0 34 -1 35 -40 35 -39
0 -40 -1 -40 -35z"/>
</g>
</svg>
